<?xml version="1.0" encoding="utf-8"?>
<!-- Generator: Adobe Illustrator 24.3.0, SVG Export Plug-In . SVG Version: 6.00 Build 0)  -->
<svg version="1.1" id="Layer_1" xmlns="http://www.w3.org/2000/svg" xmlns:xlink="http://www.w3.org/1999/xlink" x="0px" y="0px"
	 viewBox="0 0 768 250" style="enable-background:new 0 0 768 250;" xml:space="preserve">
<style type="text/css">
	.st0{fill:#FFFFFF;}
	.st1{fill:#BEB15D;}
	.st2{fill:#CE6A6D;}
	.st3{fill:#F06A6D;}
	.st4{fill:#763B3C;}
	.st5{font-family:'Gabriola';}
	.st6{font-size:22.9705px;}
	.st7{letter-spacing:1;}
</style>
<g>
	<rect x="-35.5" y="-23.5" class="st0" width="816" height="297"/>
	<path class="st0" d="M780-23v296H-35V-23H780 M781-24H-36v298h817V-24L781-24z"/>
</g>
<g>
	<path class="st1" d="M330.98,45.53l108.33,1.32l53.02,94.47l-55.3,93.16l-108.33-1.32l-53.02-94.47L330.98,45.53 M328.72,41.5
		l-57.66,97.13l55.28,98.5l112.95,1.37l57.66-97.13l-55.28-98.5L328.72,41.5L328.72,41.5z"/>
</g>
<g>
	<path class="st1" d="M333.19,47.82l104.94,0.83l50.98,91.73l-53.97,90.91l-104.94-0.83l-50.98-91.73L333.19,47.82 M332.62,46.81
		l-54.56,91.9l51.54,92.74l106.1,0.84l54.56-91.9l-51.54-92.74L332.62,46.81L332.62,46.81z"/>
</g>
<g>
	<path class="st2" d="M287.84,137.66l7.4-5.06l51,89.16l-7.01,4.28L287.84,137.66z M317.81,178.54l28.42-16.74l5.45,9.34
		l-28.81,16.35L317.81,178.54z M317.81,121.31l7.01-4.28l51.39,88.38l-7.4,3.89L317.81,121.31z"/>
	<path class="st2" d="M346.24,107.3l7.4-4.28l50.61,87.6l-7.01,4.28L346.24,107.3z M346.24,107.3l33.87-19.08l5.06,9.34
		l-29.98,16.35L346.24,107.3z M373.88,145.45l26.47-12.85l4.67,8.57l-26.08,13.63L373.88,145.45z M396.07,185.55l30.76-16.35
		l3.89,7.01l-33.48,18.69L396.07,185.55z"/>
	<path class="st2" d="M443.18,120.92L443.18,120.92l-53.73-38.15l9.34-3.89l29.2,20.63l2.73,1.17l55.67,40.49l-5.84,4.28
		L443.18,120.92z M429.55,105.35l-5.45-37.76l8.57-8.18l3.5,44.38l11.29,61.9l-7.4,5.06L429.55,105.35z"/>
</g>
<g>
	<path class="st3" d="M285.5,139.22l7.4-5.06l51,89.16l-7.01,4.28L285.5,139.22z M315.48,180.1l28.42-16.74l5.45,9.34l-28.81,16.35
		L315.48,180.1z M315.48,122.87l7.01-4.28l51.39,88.38l-7.4,3.89L315.48,122.87z"/>
	<path class="st3" d="M343.9,108.85l7.4-4.28l50.61,87.6l-7.01,4.28L343.9,108.85z M343.9,108.85l33.87-19.08l5.06,9.34
		l-29.98,16.35L343.9,108.85z M371.54,147.01l26.47-12.85l4.67,8.57l-26.08,13.63L371.54,147.01z M393.73,187.11l30.76-16.35
		l3.89,7.01l-33.48,18.69L393.73,187.11z"/>
	<path class="st3" d="M440.84,122.48L440.84,122.48l-53.73-38.15l9.34-3.89l29.2,20.63l2.73,1.17l55.67,40.49l-5.84,4.28
		L440.84,122.48z M427.22,106.91l-5.45-37.76l8.57-8.18l3.5,44.38l11.29,61.9l-7.4,5.06L427.22,106.91z"/>
</g>
<text transform="matrix(0.8838 -0.4679 0.4679 0.8838 319.6339 121.4007)" class="st4 st5 st6 st7">life through</text>
</svg>
