<?xml version="1.0" encoding="utf-8"?>
<!-- Generator: Adobe Illustrator 24.3.0, SVG Export Plug-In . SVG Version: 6.00 Build 0)  -->
<svg version="1.1" id="Layer_1" xmlns="http://www.w3.org/2000/svg" xmlns:xlink="http://www.w3.org/1999/xlink" x="0px" y="0px"
	 viewBox="0 0 300 97.66" style="enable-background:new 0 0 300 97.66;" xml:space="preserve">
<style type="text/css">
	.st0{fill:#BEB15D;}
	.st1{fill:#CE6A6D;}
	.st2{fill:#F06A6D;}
	.st3{fill:#763B3C;}
	.st4{font-family:'Gabriola';}
	.st5{font-size:8.9533px;}
</style>
<g>
	<path class="st0" d="M129.58,17.62l41.71,0.51l20.42,36.38l-21.3,35.87l-41.71-0.51l-20.42-36.38L129.58,17.62 M128.45,15.61
		l-22.47,37.86l21.55,38.39l44.02,0.53l22.47-37.86l-21.55-38.39L128.45,15.61L128.45,15.61z"/>
</g>
<g>
	<path class="st0" d="M130.26,18.18l40.78,0.32l19.81,35.64l-20.97,35.33l-40.78-0.32l-19.81-35.64L130.26,18.18 M129.97,17.68
		L108.71,53.5l20.09,36.15l41.35,0.33l21.26-35.82l-20.09-36.15L129.97,17.68L129.97,17.68z"/>
</g>
<g>
	<path class="st1" d="M112.52,53.09l2.88-1.97l19.88,34.75l-2.73,1.67L112.52,53.09z M124.2,69.02l11.08-6.53l2.12,3.64l-11.23,6.37
		L124.2,69.02z M124.2,46.72l2.73-1.67l20.03,34.45l-2.88,1.52L124.2,46.72z"/>
	<path class="st1" d="M135.28,41.25l2.88-1.67l19.73,34.14l-2.73,1.67L135.28,41.25z M135.28,41.25l13.2-7.44l1.97,3.64l-11.68,6.37
		L135.28,41.25z M146.05,56.12l10.32-5.01l1.82,3.34l-10.17,5.31L146.05,56.12z M154.7,71.75l11.99-6.37l1.52,2.73l-13.05,7.28
		L154.7,71.75z"/>
	<path class="st1" d="M173.07,46.56L173.07,46.56l-20.94-14.87l3.64-1.52l11.38,8.04l1.06,0.46l21.7,15.78l-2.28,1.67L173.07,46.56z
		 M167.75,40.49l-2.12-14.72l3.34-3.19l1.37,17.3l4.4,24.13l-2.88,1.97L167.75,40.49z"/>
</g>
<g>
	<path class="st2" d="M111.61,53.7l2.88-1.97l19.88,34.75l-2.73,1.67L111.61,53.7z M123.29,69.63l11.08-6.53l2.12,3.64l-11.23,6.37
		L123.29,69.63z M123.29,47.32l2.73-1.67l20.03,34.45l-2.88,1.52L123.29,47.32z"/>
	<path class="st2" d="M134.37,41.86l2.88-1.67l19.73,34.14L154.25,76L134.37,41.86z M134.37,41.86l13.2-7.44l1.97,3.64l-11.68,6.37
		L134.37,41.86z M145.14,56.73l10.32-5.01l1.82,3.34l-10.17,5.31L145.14,56.73z M153.79,72.36l11.99-6.37l1.52,2.73L154.25,76
		L153.79,72.36z"/>
	<path class="st2" d="M172.16,47.17L172.16,47.17L151.21,32.3l3.64-1.52l11.38,8.04l1.06,0.46L189,55.06l-2.28,1.67L172.16,47.17z
		 M166.84,41.1l-2.12-14.72l3.34-3.19l1.37,17.3l4.4,24.13l-2.88,1.97L166.84,41.1z"/>
</g>
<text transform="matrix(0.8838 -0.4679 0.4679 0.8838 124.9119 46.7501)" class="st3 st4 st5">life through</text>
</svg>
