<?xml version="1.0" encoding="utf-8"?>
<!-- Generator: Adobe Illustrator 26.0.3, SVG Export Plug-In . SVG Version: 6.00 Build 0)  -->
<svg version="1.1" id="Layer_1" xmlns="http://www.w3.org/2000/svg" xmlns:xlink="http://www.w3.org/1999/xlink" x="0px" y="0px"
	 viewBox="0 0 768 250" style="enable-background:new 0 0 768 250;" xml:space="preserve">
<style type="text/css">
	.st0{fill:#FFFFFF;}
	.st1{fill:#BEB15D;}
	.st2{fill:#CE6A6D;}
	.st3{fill:#F06A6D;}
	.st4{fill:#763B3C;}
	.st5{font-family:'ArialMT';}
	.st6{font-size:27.8694px;}
</style>
<g>
	<rect x="-35.5" y="-23.5" class="st0" width="816" height="297"/>
	<path class="st0" d="M780-23v296H-35V-23H780 M781-24H-36v298h817V-24L781-24z"/>
</g>
<g>
	<path class="st1" d="M319.7,10.3l132.4,1.1l65.2,115.2l-67.2,114.1l-132.4-1.1l-65.2-115.2L319.7,10.3 M317.4,6.2l-69.5,118.1
		l67.5,119.3l137,1.2l69.5-118.1L454.5,7.4L317.4,6.2L317.4,6.2z"/>
</g>
<g>
	<path class="st1" d="M322.8,13.7l127.6,0.5l62.4,111.3l-65.2,110.7l-127.6-0.5l-62.4-111.3L322.8,13.7 M322.2,12.7l-65.8,111.7
		l62.9,112.3l128.7,0.6l65.8-111.7L450.9,13.2L322.2,12.7L322.2,12.7z"/>
</g>
<g>
	<path class="st2" d="M268.3,123.1l8.9-6.2l62.3,107.9l-8.5,5.2L268.3,123.1z M304.8,172.6l34.4-20.4l6.7,11.3l-34.9,20L304.8,172.6
		z M304.5,103.1l8.5-5.2l62.7,107l-9,4.8L304.5,103.1z"/>
	<path class="st2" d="M339,86l9-5.2l61.8,106l-8.5,5.2L339,86z M339,86l41-23.3l6.2,11.3l-36.3,20L339,86z M372.7,132.2l32.1-15.7
		l5.7,10.4l-31.6,16.6L372.7,132.2z M399.8,180.7l37.2-20l4.8,8.5L401.2,192L399.8,180.7z"/>
	<path class="st2" d="M456.6,102.1L456.6,102.1L391.3,56l11.3-4.8l35.5,24.9l3.3,1.4l67.7,48.9l-7.1,5.2L456.6,102.1z M440,83.3
		l-6.8-45.8l10.4-10l4.4,53.8l14,75l-8.9,6.2L440,83.3z"/>
</g>
<g>
	<path class="st3" d="M265.4,125l8.9-6.2l62.3,107.9l-8.5,5.2L265.4,125z M302,174.5l34.4-20.4l6.7,11.3l-34.9,20L302,174.5z
		 M301.7,105l8.5-5.2l62.7,107l-9,4.8L301.7,105z"/>
	<path class="st3" d="M336.1,87.9l9-5.2l61.8,106l-8.5,5.2L336.1,87.9z M336.1,87.9l41-23.3l6.2,11.3l-36.3,20L336.1,87.9z
		 M369.8,134.1l32.1-15.7l5.7,10.4L376,145.4L369.8,134.1z M396.9,182.6l37.2-20l4.8,8.5l-40.5,22.8L396.9,182.6z"/>
	<path class="st3" d="M453.8,104L453.8,104l-65.3-46.1l11.3-4.8l35.5,24.9l3.3,1.4l67.7,48.9l-7.1,5.2L453.8,104z M437.2,85.2
		l-6.8-45.8l10.4-10l4.4,53.8l14,75l-8.9,6.2L437.2,85.2z"/>
</g>
<text transform="matrix(0.882 -0.4712 0.4712 0.882 306.7522 103.2174)" class="st4 st5 st6">life through</text>
</svg>
